<?xml version="1.0" standalone="no"?>
<!DOCTYPE svg PUBLIC "-//W3C//DTD SVG 1.1//EN" "http://www.w3.org/Graphics/SVG/1.1/DTD/svg11.dtd" >
<svg xmlns="http://www.w3.org/2000/svg">
<metadata>
This is a custom SVG webfont generated by Font Squirrel.
Copyright   :  2000 2004 Adobe Systems Incorporated All Rights Reserved US Patent D454582
Designer    : Robert Slimbach and Carol Twombly
Foundry URL : httpwwwadobecomtype
</metadata>
<defs>
<font id="MyriadProItalic" horiz-adv-x="1007" >
<font-face units-per-em="2048" ascent="1536" descent="-512" />
<missing-glyph horiz-adv-x="372" />
<glyph unicode=" "  horiz-adv-x="372" />
<glyph unicode="&#x09;" horiz-adv-x="372" />
<glyph unicode="&#xa0;" horiz-adv-x="372" />
<glyph unicode="!" horiz-adv-x="483" d="M47 96q0 57 37 97t92 40q49 0 81 -34.5t32 -85.5q0 -57 -37 -96.5t-92 -39.5h-2q-49 0 -80 35t-31 84zM156 397l161 983h193l-217 -983h-137z" />
<glyph unicode="&#x22;" horiz-adv-x="622" d="M188 922l62 495h176l-127 -495h-111zM494 922l61 495h176l-127 -495h-110z" />
<glyph unicode="#" d="M70 403l20 117h186l95 301h-178l20 117h193l122 393h119l-123 -393h187l123 393h118l-123 -393h168l-20 -117h-184l-93 -301h179l-21 -117h-196l-123 -403h-121l125 403h-185l-125 -403h-120l125 403h-168zM395 520h187l92 301h-185z" />
<glyph unicode="$" d="M76 121l57 131q127 -88 273 -88q115 0 191.5 63.5t76.5 163.5q0 141 -172 230q-264 139 -264 327q0 137 102 239.5t258 117.5l41 200h123l-37 -200q141 -6 221 -68l-57 -127q-125 66 -233.5 66t-174 -58.5t-65.5 -144.5q0 -68 44 -115t156 -108q238 -127 238 -324 q0 -166 -107.5 -271.5t-275.5 -123.5l-41 -207h-123l39 207q-70 2 -148.5 28.5t-121.5 61.5z" />
<glyph unicode="%" horiz-adv-x="1583" d="M141 834q0 201 107.5 360.5t275.5 159.5h2q119 0 180.5 -80t61.5 -197q0 -225 -106.5 -382.5t-268.5 -157.5q-117 0 -184.5 81t-67.5 216zM258 -25l1006 1381h120l-1003 -1381h-123zM281 829q0 -184 129 -184q96 0 158.5 136.5t62.5 285.5q0 178 -125 178h-2 q-96 0 -159.5 -133t-63.5 -283zM883 283q0 201 107.5 360.5t275.5 159.5h2q117 0 179 -81t62 -196q0 -225 -106.5 -382.5t-267.5 -157.5q-117 0 -184.5 81t-67.5 216zM1022 279q0 -184 129 -185q96 0 158.5 136.5t62.5 285.5q0 74 -28.5 127t-96.5 53h-2 q-96 0 -159.5 -133.5t-63.5 -283.5z" />
<glyph unicode="&#x26;" horiz-adv-x="1206" d="M35 324q0 150 98 262t244 182v6q-74 137 -74 252q-2 156 102.5 266.5t262.5 110.5q133 0 205.5 -78t72.5 -195q0 -236 -354 -401v-6q106 -180 248 -383q117 145 209 414h159q-121 -348 -290 -525q98 -137 174 -229h-201q-45 51 -94 127q-164 -150 -387 -150 q-174 0 -274.5 97.5t-100.5 249.5zM207 348q0 -102 65.5 -169.5t180.5 -67.5h2q154 0 270 122q-16 25 -73.5 109t-113 168t-100.5 160q-231 -142 -231 -322zM459 1044q0 -111 65 -219q264 125 264 301q0 68 -33.5 112t-103.5 44h-2q-80 0 -135 -68t-55 -170z" />
<glyph unicode="'" horiz-adv-x="339" d="M199 922l61 495h178l-127 -495h-112z" />
<glyph unicode="(" horiz-adv-x="581" d="M139 326q0 334 126 613.5t306 475.5h146q-186 -211 -308 -489.5t-122 -603.5q0 -297 112 -564h-129q-131 257 -131 568z" />
<glyph unicode=")" horiz-adv-x="581" d="M-94 -242q186 213 308 491.5t122 604.5q0 297 -113 561h131q129 -254 129 -565q0 -334 -125 -613.5t-307 -478.5h-145z" />
<glyph unicode="*" horiz-adv-x="847" d="M154 975l24 139l289 -39v4l-164 252l133 70l96 -285h5l155 287l117 -70l-225 -256v-4l313 41l-29 -139l-295 37v-4l168 -248l-131 -72l-98 287h-4l-162 -289l-108 74l221 250v4z" />
<glyph unicode="+" horiz-adv-x="1220" d="M113 487v119h448v484h127v-484h449v-119h-449v-487h-127v487h-448z" />
<glyph unicode="," horiz-adv-x="432" d="M-88 -252q125 238 201 490l202 20q-53 -127 -135 -275.5t-137 -222.5z" />
<glyph unicode="-" horiz-adv-x="628" d="M72 487l26 134h490l-25 -134h-491z" />
<glyph unicode="." horiz-adv-x="432" d="M43 98q0 57 37 97.5t92 40.5q51 0 83 -34t32 -89q0 -57 -37 -96.5t-94 -39.5h-2q-49 0 -80 35t-31 86z" />
<glyph unicode="/" horiz-adv-x="667" d="M-111 -82l824 1485h139l-825 -1485h-138z" />
<glyph unicode="0" d="M88 434q0 225 70.5 434t207 347.5t304.5 138.5q121 0 197.5 -64.5t104 -152.5t27.5 -201q0 -225 -64.5 -440t-200.5 -367t-312 -152q-174 0 -254 125t-80 332zM258 426q0 -311 186 -311q117 0 209 150.5t134 331.5t42 329q0 291 -178 291q-109 0 -203 -131.5t-142 -311.5 t-48 -348z" />
<glyph unicode="1" d="M342 1180l303 151h143l-251 -1331h-166l221 1159h-4l-228 -115z" />
<glyph unicode="2" d="M0 0l20 113l199 166q299 252 432 412.5t133 314.5q0 84 -50 143t-156 59q-137 0 -275 -96l-43 123q158 119 352 119q176 0 262.5 -95.5t86.5 -230.5q0 -102 -42 -202.5t-129.5 -203t-177.5 -187.5t-227 -197l-113 -88v-5h559l-28 -145h-803z" />
<glyph unicode="3" d="M33 61l57 136q123 -74 256 -74q160 0 246 89t86 204q0 119 -80 177t-205 58h-67l26 133h68q68 0 140.5 27t131 88.5t58.5 142.5q0 78 -47.5 122t-141.5 44q-150 0 -252 -73l-37 129q147 90 318 90q160 0 250 -83t90 -204q0 -125 -86 -217t-209 -127v-4 q106 -25 164.5 -109t58.5 -192q0 -188 -150.5 -314.5t-367.5 -126.5q-100 0 -185 25.5t-122 58.5z" />
<glyph unicode="4" d="M23 367l22 114l711 850h184l-158 -829h183l-27 -135h-180l-70 -367h-162l70 367h-573zM231 502h392l86 444q8 35 25.5 106.5t25.5 106.5h-8q-137 -203 -150 -219l-371 -434v-4z" />
<glyph unicode="5" d="M31 51l53 135q98 -63 248 -63q143 0 249.5 98t106.5 236q0 258 -321 258q-43 0 -150 -8l184 624h596l-28 -147h-457l-104 -338q23 4 65 4q131 0 232 -64q80 -45 119.5 -123.5t39.5 -168.5q0 -233 -159.5 -375t-387.5 -142q-90 0 -170.5 22.5t-115.5 51.5z" />
<glyph unicode="6" d="M74 414q0 219 97 418.5t237 316.5q195 164 440 194q68 12 115 9l-25 -146q-61 0 -123 -10q-180 -33 -320.5 -162t-205.5 -323h4q59 76 147 121t178 45q152 0 237 -101.5t85 -259.5q0 -207 -141.5 -373t-347.5 -166q-184 0 -280.5 120t-96.5 317zM240 391 q0 -125 57 -200.5t164 -75.5h2q127 0 214 120.5t87 268.5q0 117 -55.5 178t-155.5 61q-78 0 -152.5 -49t-128.5 -133q-20 -33 -22 -65q-10 -48 -10 -105z" />
<glyph unicode="7" d="M88 0q387 590 768 1180l-2 6h-608l28 145h797l-22 -119q-293 -465 -773 -1212h-188z" />
<glyph unicode="8" d="M49 309q0 143 88 244.5t223 155.5l2 6q-145 104 -145 262q0 160 125 268.5t301 108.5h2q147 0 241.5 -82t94.5 -219q0 -225 -262 -346v-7q197 -106 196 -315q0 -186 -140 -297t-326 -111q-184 0 -292 93.5t-108 238.5zM225 328q0 -92 61.5 -157t172.5 -65h2 q119 0 198.5 74t79.5 191q0 188 -233 270q-115 -29 -198 -110.5t-83 -202.5zM381 989q0 -156 194 -225q104 35 171 105.5t67 162.5q0 80 -46 136.5t-146 56.5h-3q-100 0 -168.5 -70t-68.5 -166z" />
<glyph unicode="9" d="M115 -20l20 145q41 -2 127 8q154 23 283 131q162 129 243 354h-6q-123 -145 -303 -145q-156 0 -239.5 101.5t-83.5 244.5q0 207 145 371t348 164q178 0 268.5 -118t90.5 -302q0 -229 -105.5 -440t-238.5 -326q-172 -147 -400 -180q-98 -10 -149 -8zM330 838 q0 -102 52 -166t148 -64q164 0 265 152q18 23 26 59q14 61 15 137q0 119 -49.5 190t-153.5 71h-2q-123 0 -212 -116t-89 -263z" />
<glyph unicode=":" horiz-adv-x="432" d="M43 96q0 57 37 97t92 40q51 0 82 -33.5t31 -86.5q0 -57 -36 -96.5t-93 -39.5h-2q-49 0 -80 35t-31 84zM180 821q0 57 37 97t92 40q51 0 83 -34.5t32 -87.5q0 -55 -37 -95.5t-92 -40.5h-2q-49 0 -81 35t-32 86z" />
<glyph unicode=";" horiz-adv-x="432" d="M-88 -252q133 252 201 490l202 20q-55 -129 -137 -276.5t-137 -221.5zM190 821q0 57 37 97t92 40q51 0 83 -34.5t32 -87.5q0 -55 -37 -95.5t-92 -40.5h-2q-49 0 -81 35t-32 86z" />
<glyph unicode="&#x3c;" horiz-adv-x="1220" d="M160 489v111l919 490v-140l-768 -403v-4l768 -404v-139z" />
<glyph unicode="=" horiz-adv-x="1220" d="M115 289v121h1024v-121h-1024zM115 692v121h1024v-121h-1024z" />
<glyph unicode="&#x3e;" horiz-adv-x="1220" d="M188 0v139l777 404v4l-777 403v140l920 -488v-115z" />
<glyph unicode="?" horiz-adv-x="786" d="M166 96q0 57 37 97t92 40q51 0 83 -34.5t32 -85.5q0 -57 -37 -96.5t-94 -39.5h-3q-49 0 -79.5 35t-30.5 84zM250 1329q125 76 280 76q139 0 214 -76t75 -180q0 -109 -56 -199t-167 -205q-145 -152 -162 -294q-2 -23 -10 -58h-164q4 37 4 53q16 178 199 373q61 66 91 99.5 t59.5 90t29.5 109.5q0 61 -37 102.5t-119 41.5q-115 0 -204 -58z" />
<glyph unicode="@" horiz-adv-x="1474" d="M72 426q0 328 206.5 558t538.5 230q266 0 431 -166.5t165 -426.5q0 -221 -106.5 -354.5t-257.5 -133.5q-68 0 -111 46t-41 134h-6q-111 -180 -291 -180q-92 0 -156.5 70.5t-64.5 187.5q0 195 139 340.5t346 145.5q127 0 221 -43l-69 -371q-45 -225 61 -230 q84 -2 152.5 102.5t68.5 272.5q0 227 -132 368.5t-365 141.5q-258 0 -436.5 -188.5t-178.5 -491.5q0 -254 146.5 -404.5t388.5 -150.5q178 0 301 74l33 -90q-147 -82 -359 -82q-270 0 -447 175t-177 466zM514 399q0 -70 36 -112.5t99 -42.5q84 0 158 88t92 190l45 232 q-53 14 -102 14q-135 0 -231.5 -109.5t-96.5 -259.5z" />
<glyph unicode="A" horiz-adv-x="1163" d="M-55 0l714 1380h201l191 -1380h-174l-56 436h-477l-219 -436h-180zM406 571h401l-53 400q-16 141 -25 254h-4q-6 -12 -47 -107.5t-66 -144.5z" />
<glyph unicode="B" horiz-adv-x="1062" d="M66 10l256 1352q147 29 296 29q209 0 318 -97q100 -82 100 -215q0 -125 -87 -218t-212 -126v-4q100 -29 165 -108.5t63 -198.5q0 -195 -166 -320q-152 -115 -447 -114q-177 0 -286 20zM256 137q57 -8 141 -8h9q160 0 269 73q112 75 111 230q0 115 -84 174.5t-208 59.5 h-138zM383 795h127q152 0 251 73.5t99 196.5q0 190 -250 190q-94 0 -141 -14z" />
<glyph unicode="C" horiz-adv-x="1136" d="M100 551q0 197 77 373t218 293q217 186 520 186q104 0 185.5 -21.5t113.5 -46.5l-55 -137q-96 57 -272 57q-229 0 -395 -155q-98 -92 -154.5 -230.5t-56.5 -294.5q0 -203 101 -326.5t318 -123.5q180 0 295 59l23 -139q-152 -68 -359 -68q-260 0 -409.5 155t-149.5 419z " />
<glyph unicode="D" horiz-adv-x="1325" d="M66 8l258 1354q162 29 342 29q348 0 508 -185q129 -135 131 -375q0 -190 -74 -363t-205 -286q-231 -193 -625 -192q-173 0 -335 18zM262 141q78 -10 178 -10q315 0 494 184q188 195 188 508q0 428 -465 428q-117 0 -188 -14z" />
<glyph unicode="E" horiz-adv-x="962" d="M63 0l263 1380h704l-29 -145h-532l-84 -442h502l-29 -144h-502l-94 -504h565l-28 -145h-736z" />
<glyph unicode="F" horiz-adv-x="952" d="M63 0l263 1380h700l-27 -145h-530l-90 -465h489l-28 -145h-488l-119 -625h-170z" />
<glyph unicode="G" horiz-adv-x="1275" d="M100 561q0 176 70 344t201 285q233 205 567 205q219 0 326 -64l-56 -143q-123 59 -290 59q-250 0 -429 -168q-96 -90 -151 -226t-55 -280q0 -207 108.5 -324.5t331.5 -117.5q123 0 211 39l78 412h-281l27 139h446l-125 -662q-180 -74 -389 -73q-297 0 -450 172 q-140 155 -140 403z" />
<glyph unicode="H" horiz-adv-x="1284" d="M63 0l265 1380h170l-113 -581h635l110 581h173l-265 -1380h-170l123 649h-635l-123 -649h-170z" />
<glyph unicode="I" horiz-adv-x="477" d="M61 0l263 1380h170l-263 -1380h-170z" />
<glyph unicode="J" horiz-adv-x="745" d="M-63 12l36 146q70 -29 174 -29q115 0 181.5 71.5t101.5 248.5l176 931h170l-180 -950q-45 -242 -152.5 -347.5t-302.5 -105.5q-130 0 -204 35z" />
<glyph unicode="K" horiz-adv-x="1054" d="M63 0l263 1380h170l-129 -671l10 2q27 33 77 88t58 65l485 516h213l-581 -594l356 -786h-186l-301 678l-166 -154l-101 -524h-168z" />
<glyph unicode="L" horiz-adv-x="905" d="M63 0l263 1380h170l-236 -1233h557l-29 -147h-725z" />
<glyph unicode="M" horiz-adv-x="1597" d="M27 0l358 1380h217l109 -790q31 -256 32 -346h7q61 145 161 340l428 796h222l-177 -1380h-163l98 745q41 297 76 467h-9q-131 -289 -215 -444l-409 -760h-131l-103 744q-31 231 -43 460h-4q-14 -57 -51 -227t-55 -240l-189 -745h-159z" />
<glyph unicode="N" horiz-adv-x="1294" d="M63 0l263 1380h186l317 -782q76 -199 121 -385l4 4q12 178 58 430l139 733h162l-264 -1380h-168l-314 780q-86 215 -129 398l-6 -2q-18 -168 -72 -455l-137 -721h-160z" />
<glyph unicode="O" horiz-adv-x="1368" d="M98 539q0 186 71 370.5t193 307.5q88 86 211 136t252 50q135 0 237.5 -46t163 -126t90.5 -179.5t30 -213.5q0 -186 -66 -367.5t-184 -300.5q-197 -193 -473 -193q-254 0 -389.5 163t-135.5 399zM276 553q0 -186 90.5 -309t280.5 -123q178 0 316 137q94 94 149 257t55 314 q0 82 -15 152t-53 136.5t-114 104.5t-182 38q-180 0 -316 -140q-96 -96 -153.5 -256.5t-57.5 -310.5z" />
<glyph unicode="P" horiz-adv-x="1038" d="M63 0l261 1360q129 31 299 31q225 0 338 -107q100 -94 100 -250q0 -111 -46 -205t-120 -155q-158 -131 -418 -131q-70 0 -141 10l-105 -553h-168zM362 696q70 -14 138 -14q174 0 281.5 96t107.5 244q0 117 -75 173t-200 56q-96 0 -149 -14z" />
<glyph unicode="Q" horiz-adv-x="1368" d="M98 541q0 182 67.5 363t188.5 302q90 92 215 144.5t256 52.5q262 0 391.5 -164t129.5 -401q0 -176 -63.5 -357.5t-178.5 -296.5q-121 -121 -264 -159v-7q258 -53 366 -69l-65 -142q-315 76 -479 144q-80 29 -95 29q-203 10 -336 160.5t-133 400.5zM276 549 q0 -182 88.5 -305t274.5 -123q182 0 319 133q96 96 152.5 262t56.5 318q0 76 -15 143t-52 135t-113 108t-184 40q-178 0 -314 -136q-98 -98 -155.5 -261.5t-57.5 -313.5z" />
<glyph unicode="R" horiz-adv-x="1071" d="M63 0l261 1360q139 31 301 31q221 0 329 -101q102 -90 103 -229q0 -143 -95.5 -252t-232.5 -147l-2 -5q137 -47 154 -278q25 -322 43 -379h-176q-14 51 -33 334q-8 139 -60.5 203.5t-156.5 64.5h-152l-113 -602h-170zM373 733h151q158 0 256.5 89t98.5 218 q0 106 -72 159.5t-195 53.5q-90 0 -143 -14z" />
<glyph unicode="S" horiz-adv-x="954" d="M25 74l61 139q131 -88 293 -88q123 0 211 69.5t88 190.5q0 78 -48 138.5t-155 119.5q-274 147 -274 354q0 180 135 293t332 113q172 0 282 -74l-61 -137q-111 64 -232 63h-8q-121 0 -196.5 -67.5t-75.5 -157.5q0 -80 49 -136t164 -120q133 -70 198.5 -158t65.5 -210 q0 -184 -135 -306.5t-363 -122.5q-100 2 -193 30t-138 67z" />
<glyph unicode="T" horiz-adv-x="970" d="M133 1233l29 147h979l-29 -147h-405l-234 -1233h-170l234 1233h-404z" />
<glyph unicode="U" horiz-adv-x="1271" d="M152 385q0 94 18 190l154 805h170l-156 -817q-16 -92 -16 -174q0 -129 68.5 -197.5t187.5 -68.5q305 0 385 436l157 821h170l-157 -825q-113 -578 -578 -578q-180 0 -291.5 101.5t-111.5 306.5z" />
<glyph unicode="V" horiz-adv-x="1103" d="M170 1380h174l100 -884q25 -209 27 -312h6q78 193 152 334l438 862h188l-727 -1380h-186z" />
<glyph unicode="W" horiz-adv-x="1697" d="M199 1380h172l28 -827q2 -73 2 -163t-2 -197h4q66 180 144 350l381 837h182l29 -794q5 -150 5 -273q0 -61 -1 -116h4q68 195 135 354l371 829h178l-641 -1380h-178l-37 784q-2 69 -2 143q0 122 6 255h-6q-82 -236 -139 -363l-385 -819h-183z" />
<glyph unicode="X" horiz-adv-x="1067" d="M-61 0l538 702l-260 678h180l131 -354q53 -152 70 -209h4q104 158 141 209l265 354h202l-532 -675l276 -705h-180l-131 342q-57 141 -88 242h-4q-98 -150 -162 -238l-248 -346h-202z" />
<glyph unicode="Y" horiz-adv-x="1058" d="M172 1380h182l133 -446q41 -141 58 -232h4q84 139 147 238l299 440h199l-588 -805l-108 -575h-168l108 573z" />
<glyph unicode="Z" horiz-adv-x="1071" d="M-41 0l21 104l935 1125v4h-657l29 147h884l-20 -110l-930 -1118l2 -5h725l-28 -147h-961z" />
<glyph unicode="[" horiz-adv-x="581" d="M39 -227l311 1632h359l-21 -111h-219l-270 -1411h219l-21 -110h-358z" />
<glyph unicode="\" horiz-adv-x="673" d="M125 1403h133l375 -1485h-133z" />
<glyph unicode="]" horiz-adv-x="581" d="M-88 -227l20 110h222l270 1411h-221l20 111h359l-312 -1632h-358z" />
<glyph unicode="^" horiz-adv-x="1220" d="M141 387l416 944l123 -2l414 -942h-140l-333 795h-7l-333 -795h-140z" />
<glyph unicode="_" horiz-adv-x="1024" d="M-121 -256l21 102h1024l-21 -102h-1024z" />
<glyph unicode="`" horiz-adv-x="784" d="M295 1405h192l136 -293h-121z" />
<glyph unicode="a" horiz-adv-x="1069" d="M63 305q0 131 47.5 256t133.5 226.5t218 164t288 62.5q150 0 266 -39l-101 -516q-44 -228 -44 -404q0 -28 1 -55h-157q0 68 22 256h-4q-147 -279 -385 -279q-129 0 -207 92.5t-78 235.5zM240 336q0 -219 170 -219q111 0 217 128t141 320l57 299q-57 14 -118 15 q-188 0 -326.5 -166t-140.5 -377z" />
<glyph unicode="b" horiz-adv-x="1075" d="M94 233q0 59 17 154l215 1067h170l-131 -643h4q133 203 348 203q152 0 225.5 -104.5t73.5 -252.5q0 -158 -68.5 -310t-214 -261t-334.5 -109q-139 0 -222 62.5t-83 193.5zM268 258q0 -147 160 -147q178 0 295 170t117 354q0 102 -47.5 169.5t-141.5 67.5 q-113 0 -212 -106.5t-136 -278.5l-22 -104q-13 -52 -13 -109v-16z" />
<glyph unicode="c" horiz-adv-x="866" d="M72 362q0 262 173 456t433 194q127 0 207 -43l-49 -135q-78 37 -168 36q-184 0 -302 -150.5t-118 -336.5q0 -123 63.5 -193.5t182.5 -70.5q115 0 229 55l16 -135q-129 -61 -286 -62q-184 0 -282.5 108.5t-98.5 276.5z" />
<glyph unicode="d" horiz-adv-x="1075" d="M66 338q0 270 177 473t435 203q102 0 176 -35l88 475h170l-217 -1141q-35 -170 -43 -313h-156l27 197h-4q-139 -219 -357 -220q-139 0 -217.5 101.5t-78.5 259.5zM242 360q0 -104 43 -173.5t143 -69.5q102 0 201.5 105.5t130.5 266.5l67 347q-63 41 -163 41 q-174 0 -298 -157t-124 -360z" />
<glyph unicode="e" horiz-adv-x="927" d="M68 377q0 152 66.5 297t193.5 242.5t280 97.5q137 0 214 -72t77 -182q0 -324 -621 -324h-38q-3 -17 -4 -42q0 -21 3 -48q5 -59 21 -98q59 -133 221 -133q135 0 267 69l24 -127q-137 -80 -328 -80q-186 0 -281 112t-95 288zM260 567h21q210 0 329 39q125 41 125 148v2 q0 59 -41 92t-110 33q-115 0 -203 -93.5t-121 -220.5z" />
<glyph unicode="f" horiz-adv-x="579" d="M82 0l162 856h-131l24 135h133l11 51q39 238 161 347q94 88 236 88q94 0 135 -27l-37 -135q-39 18 -100 18q-178 0 -230 -295l-8 -47h221l-26 -135h-219l-164 -856h-168z" />
<glyph unicode="g" horiz-adv-x="1073" d="M18 -358l50 133q106 -66 262 -66q279 0 356 354l33 148h-6q-129 -211 -344 -211q-141 0 -221 101.5t-80 248.5q0 260 175 461q177 203 453 203q170 0 318 -70l-152 -819q-63 -328 -200 -442q-127 -111 -347 -111q-188 0 -297 70zM244 373q0 -98 44 -168t146 -70 q106 0 204.5 115t125.5 264l63 330q-70 33 -163 33q-178 0 -298 -154.5t-122 -349.5z" />
<glyph unicode="h" horiz-adv-x="1093" d="M57 0l277 1454h170l-123 -639h4q137 199 354 199q98 0 172 -65.5t74 -200.5q0 -86 -16 -168l-111 -580h-170l111 571q12 74 12 138q0 164 -154 163q-102 0 -205.5 -107.5t-132.5 -268.5l-92 -496h-170z" />
<glyph unicode="i" horiz-adv-x="468" d="M57 0l191 991h170l-191 -991h-170zM279 1268q2 49 33.5 81.5t78.5 32.5q45 0 73 -29.5t28 -76.5q-2 -51 -34 -83t-81 -32h-2q-43 0 -69.5 30t-26.5 77z" />
<glyph unicode="j" horiz-adv-x="464" d="M-227 -416l20 133q37 -8 78 -8q70 0 118 56.5t74 201.5l193 1024h170l-188 -987q-47 -250 -125 -336q-86 -96 -228 -96q-73 0 -112 12zM279 1268q2 49 33.5 81.5t78.5 32.5q45 0 73 -29.5t28 -76.5q-2 -51 -34 -83t-81 -32h-2q-43 0 -69.5 30t-26.5 77z" />
<glyph unicode="k" horiz-adv-x="933" d="M59 0l275 1454h170l-174 -911h4q14 16 47 51t45 49l350 348h209l-432 -407l297 -584h-188l-238 489l-125 -112l-72 -377h-168z" />
<glyph unicode="l" horiz-adv-x="468" d="M59 0l277 1454h170l-279 -1454h-168z" />
<glyph unicode="m" horiz-adv-x="1654" d="M57 0l133 702q27 150 46 289h149l-27 -186h7q141 209 348 209q109 0 167 -60.5t64 -160.5q133 217 365 221q96 0 167.5 -65.5t71.5 -194.5q0 -80 -16 -168l-111 -586h-166l107 571q14 63 14 129q0 172 -149 172q-96 0 -188.5 -102t-120.5 -262l-97 -508h-164l111 582 q12 66 12 120q0 170 -147 170q-96 0 -192.5 -110.5t-125.5 -263.5l-92 -498h-166z" />
<glyph unicode="n" horiz-adv-x="1093" d="M57 0l133 702q14 70 48 289h151l-24 -194h4q137 217 366 217q104 0 178 -66.5t74 -210.5q0 -63 -18 -159l-111 -578h-170l109 571q14 68 14 127q0 174 -156 174q-98 0 -201.5 -108.5t-136.5 -282.5l-90 -481h-170z" />
<glyph unicode="o" horiz-adv-x="1069" d="M72 385q0 252 156.5 440.5t392.5 188.5q188 0 287.5 -121t99.5 -293q0 -242 -156 -432.5t-393 -190.5q-180 0 -283.5 117t-103.5 291zM311.5 190.5q63.5 -77.5 169.5 -77.5q145 0 249 153.5t104 335.5q0 106 -55.5 191.5t-176.5 85.5q-152 0 -254 -153 q-100 -150 -100 -328q0 -130 63.5 -207.5z" />
<glyph unicode="p" horiz-adv-x="1075" d="M-31 -406l199 1045q27 158 55 354h156l-29 -188h4q68 98 162 153.5t195 55.5q152 0 228.5 -104.5t76.5 -254.5q0 -268 -169 -473t-411 -205q-137 0 -215 46h-4l-80 -429h-168zM248 166q66 -53 188 -53q162 0 283 164.5t121 365.5q0 92 -46 160.5t-145 68.5 q-109 0 -212 -116.5t-140 -313.5z" />
<glyph unicode="q" horiz-adv-x="1075" d="M66 338q0 168 75.5 320.5t223 254t331.5 101.5q174 0 318 -66l-256 -1354h-168l119 586h-4q-59 -96 -153.5 -149.5t-191.5 -53.5q-141 0 -217.5 103.5t-76.5 257.5zM242 358q0 -115 46 -178t126 -63q117 0 217 113.5t131 269.5l65 342q-61 35 -165 35q-168 0 -293 -155 t-127 -364z" />
<glyph unicode="r" horiz-adv-x="651" d="M57 0l121 639q29 152 51 352h150q-16 -139 -27 -215h6q51 106 129 172t175 66q23 0 47 -4l-33 -168q-20 4 -45 4q-109 0 -199 -117t-123 -293l-82 -436h-170z" />
<glyph unicode="s" horiz-adv-x="763" d="M18 47l48 125q100 -61 213 -61q84 0 136 47t52 114q0 59 -30.5 99.5t-106.5 83.5q-178 98 -178 252q0 131 101 219t257 88q133 0 207 -49l-47 -129q-76 45 -172 45q-76 0 -126 -42t-50 -108q0 -51 32.5 -89t102.5 -77q186 -106 186 -260q0 -152 -108.5 -240t-270.5 -88 q-160 2 -246 70z" />
<glyph unicode="t" horiz-adv-x="641" d="M115 858l26 133h142l34 183l179 55l-45 -238h237l-26 -133h-238l-92 -481q-18 -100 -19 -158q0 -96 95 -96q49 0 79 8l-8 -135q-55 -18 -131 -19q-106 0 -157.5 54.5t-51.5 138.5t21 186l98 502h-143z" />
<glyph unicode="u" horiz-adv-x="1077" d="M104 264q0 68 19 166l106 561h170l-104 -553q-18 -82 -19 -145q0 -172 160 -172q98 0 195.5 102.5t126.5 259.5l96 508h170l-133 -702q-27 -150 -45 -289h-154l27 186h-4q-66 -98 -159 -153.5t-191 -55.5q-111 0 -186 65.5t-75 221.5z" />
<glyph unicode="v" horiz-adv-x="931" d="M104 991h175l86 -565q31 -238 30 -244h6q41 106 105 232l303 577h186l-551 -991h-168z" />
<glyph unicode="w" horiz-adv-x="1447" d="M125 991h168l35 -557q5 -79 5 -171q0 -46 -1 -95h6q37 106 108 248l295 575h148l61 -565q17 -175 17 -244v-14h4q37 113 94 250l268 573h172l-489 -991h-158l-65 539q-14 129 -15 262h-4q-98 -225 -115 -258l-284 -543h-158z" />
<glyph unicode="x" horiz-adv-x="903" d="M-76 0l434 510l-229 481h184l97 -217q41 -100 65 -158h6q86 123 109 150l182 225h197l-418 -483l233 -508h-184l-100 223q-27 61 -72 176h-4q-68 -102 -102 -151l-201 -248h-197z" />
<glyph unicode="y" horiz-adv-x="903" d="M-82 -309q117 45 182 96q115 88 191 227q10 18 6 45l-199 932h176l99 -532q29 -150 45 -262h4q59 143 106 241l252 553h181l-371 -753q-180 -362 -342 -521q-137 -139 -289 -172z" />
<glyph unicode="z" horiz-adv-x="849" d="M-43 0l18 104l482 535q66 72 205 207l2 6h-508l26 139h713l-23 -112l-475 -529q-119 -131 -204 -205v-6h548l-26 -139h-758z" />
<glyph unicode="{" horiz-adv-x="581" d="M68 539l18 102q94 0 134 42t54 112q10 53 16.5 167.5t18.5 174.5q49 268 326 268h47l-20 -111h-37q-150 -2 -185 -178q-10 -49 -14 -149.5t-12 -153.5q-31 -184 -187 -223v-4q111 -29 111 -146q0 -78 -51 -227q-53 -137 -54 -203q0 -125 123 -127h37l-22 -110h-37 q-111 0 -175.5 53t-64.5 156q0 80 56 237q53 156 53 209q0 111 -135 111z" />
<glyph unicode="|" horiz-adv-x="444" d="M195 -512v2048h127v-2048h-127z" />
<glyph unicode="}" horiz-adv-x="581" d="M-76 -227l23 110h37q147 0 184 176q10 49 14 149.5t13 153.5q33 186 184 222v4q-109 33 -109 147q0 68 54 223q51 162 51 207q0 127 -123 129h-37l21 111h38q111 0 175.5 -53.5t64.5 -155.5q0 -94 -55 -244q-53 -152 -53 -207q0 -111 135 -108l-19 -105q-162 0 -188 -151 q-12 -57 -18.5 -172t-16.5 -170q-49 -266 -326 -266h-49z" />
<glyph unicode="~" horiz-adv-x="1220" d="M129 434q-4 145 64.5 224t179.5 79q100 0 274 -88q166 -86 250 -86q111 0 111 168h122q6 -160 -60 -232.5t-175 -72.5t-287 92q-160 84 -239 84q-53 0 -84 -44t-33 -124h-123z" />
<glyph unicode="&#xa1;" horiz-adv-x="483" d="M-23 -399l216 977h137l-160 -977h-193zM197 866q0 55 36.5 94t92.5 39h2q49 0 79.5 -34.5t30.5 -83.5q0 -57 -36.5 -97.5t-92.5 -40.5q-51 0 -81.5 35t-30.5 88z" />
<glyph unicode="&#xa2;" d="M166 565q0 231 146.5 405.5t357.5 203.5l39 204h122l-38 -200q115 0 186 -52l-57 -129q-90 47 -197 47q-147 0 -263 -136t-116 -328q0 -119 66.5 -194t187.5 -75q104 0 211 47l16 -129q-90 -51 -231 -51l-39 -207h-123l39 207q-154 27 -233 139q-74 98 -74 248z" />
<glyph unicode="&#xa3;" d="M49 0l19 104q98 47 170.5 137.5t97.5 194.5q14 51 18 170h-184l25 127h161q4 154 25 254q37 172 146.5 269.5t279.5 97.5q119 0 186 -47l-51 -131q-63 35 -154 34q-104 0 -167.5 -66.5t-83.5 -180.5q-16 -96 -17 -230h303l-24 -127h-285q-4 -86 -22 -162 q-39 -180 -189 -292v-7h596l-25 -145h-825z" />
<glyph unicode="&#xa4;" d="M76 1067l92 96l141 -153q88 84 230 84h2q145 0 233 -82l146 151l90 -94l-158 -143q72 -96 72 -244q0 -154 -72 -248l154 -147l-91 -94l-141 155q-92 -86 -237 -86q-143 0 -232 82l-135 -151l-92 94l149 141q-76 102 -75 246q0 150 79 252zM291 678q0 -143 75.5 -217 t170.5 -74q100 -2 173.5 71.5t73.5 221.5q0 121 -65.5 206t-181.5 85h-2q-109 0 -176.5 -85t-67.5 -208z" />
<glyph unicode="&#xa5;" d="M88 360l18 101h300l28 149h-299l21 101h250l-211 620h174l120 -422q45 -170 50 -188h6q47 92 114 192l291 418h185l-465 -620h248l-21 -101h-301l-29 -149h301l-18 -101h-303l-68 -360h-160l68 360h-299z" />
<glyph unicode="&#xa6;" horiz-adv-x="444" d="M195 356h127v-716h-127v716zM195 664v716h127v-716h-127z" />
<glyph unicode="&#xa7;" horiz-adv-x="1026" d="M96 -41l51 117q127 -80 256 -80q104 0 171 50t67 132q0 57 -43 104.5t-160 100.5q-135 63 -206.5 130t-71.5 161q0 174 202 289q-45 57 -45 131q0 139 115 224t276.5 85t262.5 -68l-51 -112q-102 61 -230 61q-90 0 -153.5 -47t-63.5 -119q0 -61 45 -99t160 -89 q127 -57 191.5 -124t64.5 -165q0 -178 -182 -293q49 -57 49 -145q0 -158 -120 -243t-284 -83q-192 0 -301 82zM311 717q0 -59 35 -102.5t133 -92.5q133 -63 189 -104q117 74 116 182q0 113 -153 193q-127 59 -191 102q-59 -31 -94 -78t-35 -98v-2z" />
<glyph unicode="&#xa8;" horiz-adv-x="784" d="M256 1268q0 45 30.5 76.5t75.5 31.5q43 0 70 -28.5t27 -71.5q0 -45 -30 -77t-77 -32h-2q-41 0 -67.5 29t-26.5 72zM631 1268q0 45 30.5 76.5t75.5 31.5q43 0 70 -28.5t27 -71.5q0 -45 -30 -77t-77 -32h-2q-41 0 -67.5 29t-26.5 72z" />
<glyph unicode="&#xa9;" horiz-adv-x="1382" d="M131 696q0 262 180.5 446.5t440.5 184.5h2q256 0 433 -184.5t177 -446.5q0 -264 -177 -449.5t-435 -185.5q-260 0 -440.5 185.5t-180.5 449.5zM231 690q0 -229 149.5 -387t369.5 -158q217 -2 365.5 157t148.5 394q0 229 -148.5 388t-365.5 159h-2q-217 0 -367 -160 t-150 -393zM410 684q0 170 114.5 275.5t274.5 105.5q74 0 138 -17.5t89 -37.5l-25 -82q-86 49 -200 49q-137 0 -211 -79t-74 -208q0 -125 76 -207t211 -82q129 0 209 56l24 -78q-96 -66 -252 -66q-174 0 -274 104.5t-100 266.5z" />
<glyph unicode="&#xaa;" horiz-adv-x="716" d="M119 770q0 178 117.5 309t320.5 131q104 0 201 -34l-76 -422q-10 -70 -16 -207h-121q0 68 8 131l-4 -2q-88 -141 -236 -141q-88 0 -141 64.5t-53 170.5zM254 793q0 -152 113 -152q68 0 129 66.5t77 156.5l43 230q-35 14 -94 14q-109 0 -187.5 -92t-80.5 -223z" />
<glyph unicode="&#xab;" horiz-adv-x="837" d="M68 516l301 377h149l-311 -381l209 -373h-137zM401 516l304 377h149l-311 -381l209 -373h-138z" />
<glyph unicode="&#xac;" horiz-adv-x="1220" d="M100 696v121h1026v-571h-129v450h-897z" />
<glyph unicode="&#xad;" horiz-adv-x="628" d="M72 487l26 134h490l-25 -134h-491z" />
<glyph unicode="&#xae;" horiz-adv-x="808" d="M172 1063q0 139 101.5 237.5t244.5 98.5h2q143 0 241.5 -98.5t98.5 -237.5q0 -143 -98 -240.5t-243.5 -97.5t-246 97.5t-100.5 240.5zM258 1063q0 -113 75 -190.5t185 -77.5q109 -2 182.5 76.5t73.5 191.5t-73.5 190.5t-184.5 77.5h-2q-109 0 -182.5 -78.5t-73.5 -189.5z M385 889v334q61 12 129 12q80 0 117 -27q35 -25 35 -71q0 -57 -70 -80v-4q43 -14 59 -82q12 -61 25 -82h-82q-12 16 -27 80q-12 53 -69 53h-39v-133h-78zM465 1077h37q80 0 80 49q0 51 -74 52q-23 0 -43 -4v-97z" />
<glyph unicode="&#xaf;" horiz-adv-x="784" d="M311 1212l21 111h448l-20 -111h-449z" />
<glyph unicode="&#xb0;" horiz-adv-x="651" d="M190 1130q-2 113 79 194t192 81h2q117 0 188.5 -77t71.5 -181q0 -119 -83 -198t-189 -79q-113 0 -187 75.5t-74 184.5zM301 1133q0 -70 44 -118t109.5 -48t111.5 51t46 125q0 63 -38.5 114.5t-114.5 51.5h-2q-70 0 -113 -55t-43 -121z" />
<glyph unicode="&#xb1;" horiz-adv-x="1220" d="M115 0v121h1026v-121h-1026zM115 651v121h450v399h125v-399h451v-121h-451v-411h-125v411h-450z" />
<glyph unicode="&#xb2;" horiz-adv-x="610" d="M96 831l15 80l149 121q168 135 244 218t76 167q0 45 -29 77t-94 32q-84 0 -174 -62l-31 92q113 84 248 84q106 0 168.5 -58t62.5 -148q0 -57 -25.5 -112.5t-83 -114t-102.5 -97.5t-129 -104l-74 -58v-4h340l-22 -113h-539z" />
<glyph unicode="&#xb3;" horiz-adv-x="595" d="M111 881l47 98q76 -53 178 -53q88 0 139 45t51 108q0 66 -54 99.5t-132 33.5h-43l18 93h43q76 0 140.5 38.5t64.5 100.5q0 92 -117 92q-90 0 -165 -59l-23 94q96 70 227 69q106 0 166 -51t60 -125q0 -70 -51.5 -121t-135.5 -77v-4q66 -16 107 -66.5t41 -116.5 q-2 -117 -95.5 -187.5t-240.5 -70t-225 59.5z" />
<glyph unicode="&#xb4;" horiz-adv-x="784" d="M414 1112l200 293h205l-272 -293h-133z" />
<glyph unicode="&#xb5;" horiz-adv-x="1075" d="M4 -406q-18 90 33 369l196 1028h168l-110 -588q-53 -283 166 -282q72 0 140.5 61.5t113.5 147.5q29 53 43 121l102 540h170l-133 -704q-16 -96 -4 -132t61 -40l-37 -129q-25 -8 -55 -9q-139 0 -129 205h-6q-49 -86 -127 -143t-172 -57q-150 0 -201 118l-24 -133 q-47 -281 -41 -373h-154z" />
<glyph unicode="&#xb6;" horiz-adv-x="1011" d="M154 889q0 217 167.5 354t460.5 137q154 0 226 -16l-283 -1470h-123l260 1368h-147l-262 -1368h-123l125 643q-4 0 -11.5 2t-11.5 2q-106 14 -192 104t-86 244z" />
<glyph unicode="&#xb7;" horiz-adv-x="432" d="M102 526q0 57 37 97.5t92 40.5q51 0 83 -34t32 -89.5t-37 -95t-92 -39.5h-2q-49 0 -81 34.5t-32 85.5z" />
<glyph unicode="&#xb8;" horiz-adv-x="784" d="M53 -377l39 88q45 -29 105 -28q37 0 63.5 19t26.5 54q0 63 -135 80l120 168h109l-80 -106q49 -12 80 -47t31 -84q0 -82 -65.5 -130.5t-158.5 -48.5q-84 0 -135 35z" />
<glyph unicode="&#xb9;" horiz-adv-x="466" d="M240 1540l202 90h125l-153 -799h-140l129 674h-4l-147 -67z" />
<glyph unicode="&#xba;" horiz-adv-x="706" d="M106 807q0 172 108 287.5t257 115.5h2q133 0 206 -79.5t73 -196.5q0 -170 -106.5 -284.5t-264.5 -114.5q-127 0 -201 80.5t-74 191.5zM244 811q0 -82 42 -129t107 -47q88 0 153.5 88t65.5 217q0 70 -34.5 119t-116.5 49h-2q-90 0 -152.5 -89t-62.5 -208z" />
<glyph unicode="&#xbb;" horiz-adv-x="835" d="M14 139l312 383l-209 371h137l213 -377l-303 -377h-150zM350 139l312 383l-209 371h137l213 -377l-303 -377h-150z" />
<glyph unicode="&#xbc;" horiz-adv-x="1538" d="M199 -23l995 1377h127l-995 -1377h-127zM229 1253l205 90h125l-153 -798h-142l129 674h-4l-145 -68zM772 211l16 80l476 518h151l-94 -498h119l-21 -100h-116l-41 -211h-136l41 211h-395zM938 313l2 -2h246l45 242q6 27 33 129h-4q-14 -18 -43 -58t-46 -59z" />
<glyph unicode="&#xbd;" horiz-adv-x="1538" d="M162 -23l999 1377h123l-997 -1377h-125zM221 1253l205 90h123l-152 -798h-141l129 674h-4l-148 -68zM813 0l16 80l150 121q117 96 172 145t101 115.5t46 124.5q0 45 -29.5 76.5t-92.5 31.5q-84 0 -175 -61l-32 92q117 84 250 84q106 0 167.5 -58.5t61.5 -148.5 q0 -76 -54.5 -156.5t-113.5 -133t-172 -138.5l-74 -57v-4h340l-22 -113h-539z" />
<glyph unicode="&#xbe;" horiz-adv-x="1538" d="M84 594l47 98q72 -53 176 -53q88 0 139.5 44t51.5 109.5t-54.5 99.5t-132.5 34h-41l19 92h41q76 0 141.5 39t65.5 100q0 92 -117 92q-88 0 -168 -59l-21 94q96 70 228 70q104 0 164.5 -51.5t60.5 -124.5q0 -70 -51 -121t-135 -78v-4q66 -16 105.5 -66.5t39.5 -115.5 q-2 -117 -94 -187.5t-239.5 -70.5t-225.5 59zM268 -23l996 1377h127l-996 -1377h-127zM795 211l16 80l475 518h152l-95 -498h119l-18 -100h-119l-41 -211h-135l41 211h-395zM961 313l2 -2h245l45 242q6 27 33 129h-4q-14 -18 -43 -58t-45 -59z" />
<glyph unicode="&#xbf;" horiz-adv-x="786" d="M-2 -160q0 172 221 393q143 150 164 295l8 58h164q0 -18 -4 -56q-12 -174 -201 -370q-86 -88 -131 -157t-45 -142q0 -61 37 -102.5t119 -43.5q111 0 205 56l32 -125q-129 -74 -276 -74q-143 0 -218 79.5t-75 188.5zM403 866q0 55 37 94t95 39h2q49 0 79.5 -34.5 t30.5 -83.5q0 -57 -37 -97.5t-92 -40.5q-51 0 -83 35t-32 88z" />
<glyph unicode="&#xc0;" horiz-adv-x="1163" d="M-55 0l714 1380h201l191 -1380h-174l-56 436h-477l-219 -436h-180zM406 571h401l-53 400q-16 141 -25 254h-4q-6 -12 -47 -107.5t-66 -144.5zM477 1696h211l154 -240h-140z" />
<glyph unicode="&#xc1;" horiz-adv-x="1163" d="M-55 0l714 1380h201l191 -1380h-174l-56 436h-477l-219 -436h-180zM406 571h401l-53 400q-16 141 -25 254h-4q-6 -12 -47 -107.5t-66 -144.5zM659 1454l209 242h222l-279 -242h-152z" />
<glyph unicode="&#xc2;" horiz-adv-x="1163" d="M-55 0l714 1380h201l191 -1380h-174l-56 436h-477l-219 -436h-180zM406 571h401l-53 400q-16 141 -25 254h-4q-6 -12 -47 -107.5t-66 -144.5zM485 1454l246 242h133l164 -242h-139l-101 148h-4l-147 -148h-152z" />
<glyph unicode="&#xc3;" horiz-adv-x="1163" d="M-55 0l714 1380h201l191 -1380h-174l-56 436h-477l-219 -436h-180zM406 571h401l-53 400q-16 141 -25 254h-4q-6 -12 -47 -107.5t-66 -144.5zM502 1464q16 92 61 148.5t106.5 56.5t123.5 -41q55 -37 90 -37q49 0 69 82h97q-35 -197 -170 -196q-61 0 -123 39 q-66 39 -88 36q-47 0 -70 -88h-96z" />
<glyph unicode="&#xc4;" horiz-adv-x="1163" d="M-55 0l714 1380h201l191 -1380h-174l-56 436h-477l-219 -436h-180zM406 571h401l-53 400q-16 141 -25 254h-4q-6 -12 -47 -107.5t-66 -144.5zM487 1575q0 43 32 75.5t75 32.5q41 0 68.5 -30.5t27.5 -69.5q0 -45 -30.5 -76.5t-75.5 -31.5h-2q-39 0 -67 29.5t-28 70.5z M864 1575q0 43 32 75.5t75 32.5t69.5 -29.5t26.5 -70.5q0 -45 -29.5 -76.5t-74.5 -31.5h-2q-39 0 -68 29.5t-29 70.5z" />
<glyph unicode="&#xc5;" horiz-adv-x="1163" d="M-55 0l714 1380h201l191 -1380h-174l-56 436h-477l-219 -436h-180zM406 571h401l-53 400q-16 141 -25 254h-4q-6 -12 -47 -107.5t-66 -144.5zM580 1595q-2 82 58 137.5t150 55.5h3q86 0 140 -49t54 -129q-2 -82 -63.5 -134.5t-147.5 -52.5q-84 0 -138 48t-56 124z M686 1599q0 -43 25.5 -71.5t66.5 -28.5q45 0 73 31t28 78t-26 76.5t-69 29.5h-2q-43 0 -69.5 -33t-26.5 -82z" />
<glyph unicode="&#xc6;" horiz-adv-x="1583" d="M-104 0l917 1380h778l-26 -145h-516l-48 -447h488l-27 -143h-473l-51 -500h526l-26 -145h-674l47 487h-412l-323 -487h-180zM487 629h338l43 399q14 156 25 223h-8q-70 -123 -131 -217z" />
<glyph unicode="&#xc7;" horiz-adv-x="1142" d="M100 553q0 197 77 372t218 292q221 186 520 186q104 0 185.5 -21.5t113.5 -46.5l-55 -137q-96 57 -272 57q-227 0 -395 -155q-98 -88 -154.5 -228.5t-56.5 -293.5q0 -203 102 -328t317 -125q176 0 295 61l23 -139q-135 -61 -311 -67l-64 -82q51 -12 81 -48t30 -83 q0 -82 -66.5 -129.5t-155.5 -47.5q-86 0 -137 37l39 84q49 -29 103 -28q37 0 63.5 19t26.5 52q0 70 -133 82l106 146q-238 18 -369 170.5t-131 400.5z" />
<glyph unicode="&#xc8;" horiz-adv-x="962" d="M63 0l263 1380h704l-29 -145h-532l-84 -442h502l-29 -144h-502l-94 -504h565l-28 -145h-736zM438 1696h211l154 -240h-139z" />
<glyph unicode="&#xc9;" horiz-adv-x="962" d="M63 0l263 1380h704l-29 -145h-532l-84 -442h502l-29 -144h-502l-94 -504h565l-28 -145h-736zM586 1454l209 242h221l-279 -242h-151z" />
<glyph unicode="&#xca;" horiz-adv-x="962" d="M63 0l263 1380h704l-29 -145h-532l-84 -442h502l-29 -144h-502l-94 -504h565l-28 -145h-736zM416 1454l246 242h133l163 -242h-139l-100 148h-4l-148 -148h-151z" />
<glyph unicode="&#xcb;" horiz-adv-x="962" d="M63 0l263 1380h704l-29 -145h-532l-84 -442h502l-29 -144h-502l-94 -504h565l-28 -145h-736zM422 1575q0 43 31.5 75.5t74.5 32.5t70 -29.5t27 -70.5q0 -45 -30 -76.5t-75 -31.5h-2q-39 0 -67.5 29.5t-28.5 70.5zM801 1575q0 43 31.5 75.5t74.5 32.5t70 -29.5t27 -70.5 q0 -45 -31 -76.5t-76 -31.5h-2q-39 0 -66.5 29.5t-27.5 70.5z" />
<glyph unicode="&#xcc;" horiz-adv-x="477" d="M61 0l263 1380h170l-263 -1380h-170zM162 1696h211l153 -240h-139z" />
<glyph unicode="&#xcd;" horiz-adv-x="477" d="M61 0l263 1380h170l-263 -1380h-170zM309 1454l207 242h223l-280 -242h-150z" />
<glyph unicode="&#xce;" horiz-adv-x="477" d="M61 0l263 1380h170l-263 -1380h-170zM135 1454l248 242h131l164 -242h-139l-101 148h-4l-147 -148h-152z" />
<glyph unicode="&#xcf;" horiz-adv-x="477" d="M61 0l263 1380h170l-263 -1380h-170zM152 1575q0 43 31.5 75.5t74.5 32.5t69.5 -29.5t26.5 -70.5q0 -45 -30.5 -76.5t-75.5 -31.5h-2q-39 0 -66.5 29.5t-27.5 70.5zM530 1575q0 43 32 75.5t75 32.5q41 0 67.5 -29.5t26.5 -70.5q0 -45 -29.5 -76.5t-74.5 -31.5h-2 q-39 0 -67 29.5t-28 70.5z" />
<glyph unicode="&#xd0;" horiz-adv-x="1339" d="M29 649l30 144h170l107 569q178 29 350 29q346 0 500 -183q131 -131 131 -374q0 -186 -76 -361.5t-209 -286.5q-231 -193 -618 -192q-199 0 -334 18l121 637h-172zM274 143q78 -10 187 -10q295 0 479 184q92 94 143.5 229.5t51.5 280.5q0 424 -461 424q-119 0 -189 -12 l-86 -446h340l-28 -144h-340z" />
<glyph unicode="&#xd1;" horiz-adv-x="1294" d="M63 0l263 1380h186l317 -782q76 -199 121 -385l4 4q12 178 58 430l139 733h162l-264 -1380h-168l-314 780q-86 215 -129 398l-6 -2q-18 -168 -72 -455l-137 -721h-160zM584 1466q16 92 61 148.5t106.5 56.5t122.5 -41q55 -37 91 -37q47 0 69 82h96q-35 -199 -172 -198 q-53 0 -120 39q-59 39 -88 38q-47 -2 -70 -88h-96z" />
<glyph unicode="&#xd2;" horiz-adv-x="1368" d="M98 539q0 186 71 370.5t193 307.5q88 86 211 136t252 50q135 0 237.5 -46t163 -126t90.5 -179.5t30 -213.5q0 -186 -66 -367.5t-184 -300.5q-197 -193 -471 -193h-2q-254 0 -389.5 163t-135.5 399zM276 553q0 -186 90.5 -309t278.5 -123h2q178 0 316 137q94 94 149 257 t55 314q0 82 -15 152t-53 136.5t-114 104.5t-182 38q-180 0 -316 -140q-96 -96 -153.5 -256.5t-57.5 -310.5zM590 1696h211l153 -240h-139z" />
<glyph unicode="&#xd3;" horiz-adv-x="1368" d="M98 539q0 186 71 370.5t193 307.5q88 86 211 136t252 50q135 0 237.5 -46t163 -126t90.5 -179.5t30 -213.5q0 -186 -66 -367.5t-184 -300.5q-197 -193 -471 -193h-2q-254 0 -389.5 163t-135.5 399zM276 553q0 -186 90.5 -309t278.5 -123h2q178 0 316 137q94 94 149 257 t55 314q0 82 -15 152t-53 136.5t-114 104.5t-182 38q-180 0 -316 -140q-96 -96 -153.5 -256.5t-57.5 -310.5zM754 1456l209 242h223l-281 -242h-151z" />
<glyph unicode="&#xd4;" horiz-adv-x="1368" d="M98 539q0 186 71 370.5t193 307.5q88 86 211 136t252 50q135 0 237.5 -46t163 -126t90.5 -179.5t30 -213.5q0 -186 -66 -367.5t-184 -300.5q-197 -193 -471 -193h-2q-254 0 -389.5 163t-135.5 399zM276 553q0 -186 90.5 -309t278.5 -123h2q178 0 316 137q94 94 149 257 t55 314q0 82 -15 152t-53 136.5t-114 104.5t-182 38q-180 0 -316 -140q-96 -96 -153.5 -256.5t-57.5 -310.5zM578 1454l247 242h131l164 -242h-139l-100 148h-4l-148 -148h-151z" />
<glyph unicode="&#xd5;" horiz-adv-x="1368" d="M98 539q0 186 71 370.5t193 307.5q88 86 211 136t252 50q135 0 237.5 -46t163 -126t90.5 -179.5t30 -213.5q0 -186 -66 -367.5t-184 -300.5q-197 -193 -471 -193h-2q-254 0 -389.5 163t-135.5 399zM276 553q0 -186 90.5 -309t278.5 -123h2q178 0 316 137q94 94 149 257 t55 314q0 82 -15 152t-53 136.5t-114 104.5t-182 38q-180 0 -316 -140q-96 -96 -153.5 -256.5t-57.5 -310.5zM610 1466q14 92 59.5 148.5t106.5 56.5q63 0 125 -41q51 -37 88 -37q49 0 72 82h94q-35 -199 -170 -198q-51 0 -123 39q-57 39 -88 38q-47 -4 -67 -88h-97z" />
<glyph unicode="&#xd6;" horiz-adv-x="1368" d="M98 539q0 186 71 370.5t193 307.5q88 86 211 136t252 50q135 0 237.5 -46t163 -126t90.5 -179.5t30 -213.5q0 -186 -66 -367.5t-184 -300.5q-197 -193 -471 -193h-2q-254 0 -389.5 163t-135.5 399zM276 553q0 -186 90.5 -309t278.5 -123h2q178 0 316 137q94 94 149 257 t55 314q0 82 -15 152t-53 136.5t-114 104.5t-182 38q-180 0 -316 -140q-96 -96 -153.5 -256.5t-57.5 -310.5zM592 1575q0 43 31.5 75.5t74.5 32.5t70 -29.5t27 -70.5q0 -45 -31 -76.5t-74 -31.5h-2q-39 0 -67.5 29.5t-28.5 70.5zM971 1575q0 43 31.5 75.5t74.5 32.5 q41 0 69 -30.5t28 -69.5q0 -45 -31 -76.5t-76 -31.5h-2q-39 0 -66.5 29.5t-27.5 70.5z" />
<glyph unicode="&#xd7;" horiz-adv-x="1220" d="M129 987l88 90l420 -454l420 454l88 -88l-424 -450l424 -449l-90 -90l-422 455l-420 -455l-82 92l418 447z" />
<glyph unicode="&#xd8;" horiz-adv-x="1366" d="M45 -6l160 180q-106 152 -107 375q0 182 65.5 355t182.5 294q201 205 475 205q215 0 340 -117l156 174l92 -74l-164 -186q96 -139 101 -360q0 -182 -66 -361.5t-178 -298.5q-92 -96 -217 -149.5t-256 -53.5q-209 0 -338 117l-162 -182zM309 813q-80 -274 13 -496h4 l733 846q-90 96 -256 96.5t-301.5 -125.5t-192.5 -321zM395 215q90 -94 258 -94q152 0 283 117.5t190 306.5q90 276 -2 504h-4z" />
<glyph unicode="&#xd9;" horiz-adv-x="1271" d="M152 385q0 94 18 190l154 805h170l-156 -817q-16 -92 -16 -174q0 -129 68.5 -197.5t187.5 -68.5q305 0 385 436l157 821h170l-157 -825q-113 -578 -578 -578q-180 0 -291.5 101.5t-111.5 306.5zM561 1696h211l154 -240h-140z" />
<glyph unicode="&#xda;" horiz-adv-x="1271" d="M152 385q0 94 18 190l154 805h170l-156 -817q-16 -92 -16 -174q0 -129 68.5 -197.5t187.5 -68.5q305 0 385 436l157 821h170l-157 -825q-113 -578 -578 -578q-180 0 -291.5 101.5t-111.5 306.5zM690 1454l207 242h223l-278 -242h-152z" />
<glyph unicode="&#xdb;" horiz-adv-x="1271" d="M152 385q0 94 18 190l154 805h170l-156 -817q-16 -92 -16 -174q0 -129 68.5 -197.5t187.5 -68.5q305 0 385 436l157 821h170l-157 -825q-113 -578 -578 -578q-180 0 -291.5 101.5t-111.5 306.5zM553 1454l248 242h131l164 -242h-138l-102 148h-4l-147 -148h-152z" />
<glyph unicode="&#xdc;" horiz-adv-x="1271" d="M152 385q0 94 18 190l154 805h170l-156 -817q-16 -92 -16 -174q0 -129 68.5 -197.5t187.5 -68.5q305 0 385 436l157 821h170l-157 -825q-113 -578 -578 -578q-180 0 -291.5 101.5t-111.5 306.5zM545 1575q0 43 31.5 75.5t74.5 32.5t70 -29.5t27 -70.5q0 -45 -31 -76.5 t-76 -31.5h-2q-39 0 -66.5 29.5t-27.5 70.5zM924 1575q0 43 30.5 75.5t73.5 32.5t69.5 -29.5t26.5 -70.5q0 -45 -29.5 -76.5t-74.5 -31.5h-2q-39 0 -66.5 29.5t-27.5 70.5z" />
<glyph unicode="&#xdd;" horiz-adv-x="1058" d="M172 1380h182l133 -446q41 -141 58 -232h4q84 139 147 238l299 440h199l-588 -805l-108 -575h-168l108 573zM584 1454l209 242h221l-279 -242h-151z" />
<glyph unicode="&#xde;" horiz-adv-x="1038" d="M63 0l263 1380h168l-54 -270q76 16 164 16q211 0 316 -106q90 -88 90 -232q0 -225 -165 -352t-401 -127q-78 0 -153 10l-62 -319h-166zM317 463q57 -12 144 -12q156 0 267.5 88t111.5 227q0 111 -74 166t-199 55q-92 0 -153 -16z" />
<glyph unicode="&#xdf;" horiz-adv-x="1101" d="M57 0l181 944q100 532 503 533q145 0 233.5 -83t88.5 -210q0 -61 -24.5 -123t-59.5 -96q-178 -61 -178 -189q0 -70 76 -172q104 -141 104 -266q0 -166 -115.5 -263.5t-287.5 -97.5q-125 0 -205 48l47 129q72 -41 158 -41q100 0 164.5 57t64.5 152q0 92 -76 188 q-104 131 -104 231q0 96 62.5 170t158.5 117q45 45 45 141q0 70 -44 119t-132 49q-113 0 -192 -93t-113 -275l-185 -969h-170z" />
<glyph unicode="&#xe0;" horiz-adv-x="1069" d="M63 305q0 131 47.5 256t133.5 226.5t218 164t288 62.5q150 0 266 -39l-101 -516q-51 -264 -43 -459h-157q0 68 22 256h-4q-147 -279 -385 -279q-129 0 -207 92.5t-78 235.5zM240 336q0 -219 170 -219q111 0 217 128t141 320l57 299q-57 14 -118 15q-188 0 -326.5 -166 t-140.5 -377zM465 1405h192l136 -293h-123z" />
<glyph unicode="&#xe1;" horiz-adv-x="1069" d="M63 305q0 131 47.5 256t133.5 226.5t218 164t288 62.5q150 0 266 -39l-101 -516q-51 -264 -43 -459h-157q0 68 22 256h-4q-147 -279 -385 -279q-129 0 -207 92.5t-78 235.5zM240 336q0 -219 170 -219q111 0 217 128t141 320l57 299q-57 14 -118 15q-188 0 -326.5 -166 t-140.5 -377zM608 1112l203 293h205l-275 -293h-133z" />
<glyph unicode="&#xe2;" horiz-adv-x="1069" d="M63 305q0 131 47.5 256t133.5 226.5t218 164t288 62.5q150 0 266 -39l-101 -516q-51 -264 -43 -459h-157q0 68 22 256h-4q-147 -279 -385 -279q-129 0 -207 92.5t-78 235.5zM240 336q0 -219 170 -219q111 0 217 128t141 320l57 299q-57 14 -118 15q-188 0 -326.5 -166 t-140.5 -377zM438 1112l236 293h123l141 -293h-127l-88 188h-4l-144 -188h-137z" />
<glyph unicode="&#xe3;" horiz-adv-x="1069" d="M63 305q0 131 47.5 256t133.5 226.5t218 164t288 62.5q150 0 266 -39l-101 -516q-51 -264 -43 -459h-157q0 68 22 256h-4q-147 -279 -385 -279q-129 0 -207 92.5t-78 235.5zM240 336q0 -219 170 -219q111 0 217 128t141 320l57 299q-57 14 -118 15q-188 0 -326.5 -166 t-140.5 -377zM432 1163q10 92 52 148.5t106 56.5q45 0 125 -45q57 -35 82 -35q27 0 40 17.5t21 68.5h96q-25 -197 -155 -196q-63 0 -123 41q-57 37 -86 36q-43 0 -60 -92h-98z" />
<glyph unicode="&#xe4;" horiz-adv-x="1069" d="M63 305q0 131 47.5 256t133.5 226.5t218 164t288 62.5q150 0 266 -39l-101 -516q-51 -264 -43 -459h-157q0 68 22 256h-4q-147 -279 -385 -279q-129 0 -207 92.5t-78 235.5zM240 336q0 -219 170 -219q111 0 217 128t141 320l57 299q-57 14 -118 15q-188 0 -326.5 -166 t-140.5 -377zM406 1268q0 45 30.5 76.5t75.5 31.5q43 0 69.5 -28.5t26.5 -71.5q0 -45 -29.5 -77t-74.5 -32h-2q-41 0 -68.5 29t-27.5 72zM780 1268q0 47 32 77.5t77 30.5q43 0 68.5 -28.5t25.5 -71.5q0 -45 -29.5 -77t-74.5 -32h-2q-41 0 -69 29t-28 72z" />
<glyph unicode="&#xe5;" horiz-adv-x="1069" d="M63 305q0 131 47.5 256t133.5 226.5t218 164t288 62.5q150 0 266 -39l-101 -516q-51 -264 -43 -459h-157q0 68 22 256h-4q-147 -279 -385 -279q-129 0 -207 92.5t-78 235.5zM240 336q0 -219 170 -219q111 0 217 128t141 320l57 299q-57 14 -118 15q-188 0 -326.5 -166 t-140.5 -377zM492 1274q0 88 60 144.5t153 56.5h2q84 0 139 -51.5t55 -135.5q-2 -86 -64.5 -140t-148.5 -54q-82 0 -138 50t-58 130zM594 1278q0 -43 27.5 -75t70.5 -32q45 0 76 34t31 87q0 45 -28 76t-73 31h-2q-45 0 -73.5 -34t-28.5 -87z" />
<glyph unicode="&#xe6;" horiz-adv-x="1470" d="M12 231q0 193 180.5 296.5t464.5 93.5l7 36q14 84 -30 156t-159 72q-131 0 -258 -82l-37 115q154 96 316 96q119 0 192.5 -54.5t89.5 -154.5h6q61 100 162 154.5t213 54.5q135 0 210 -71t75 -167q0 -100 -51.5 -164.5t-148.5 -93.5t-203.5 -38t-254.5 -3 q-27 -139 11 -229q55 -133 225 -133q129 0 268 67l23 -123q-133 -82 -326 -82q-119 0 -205 57.5t-118 162.5h-5q-59 -102 -158.5 -161t-215.5 -59q-127 0 -200 72.5t-73 181.5zM184 254q0 -66 40 -103.5t106 -37.5q98 0 180 72.5t106 201.5l21 111q-74 4 -145.5 -5.5 t-144.5 -33t-118 -76.5t-45 -129zM811 602q109 -2 178.5 1t142 17.5t108.5 49.5t36 92v2q0 49 -39 84t-107 35q-119 0 -205.5 -89.5t-113.5 -191.5z" />
<glyph unicode="&#xe7;" horiz-adv-x="866" d="M70 362q0 260 173 455t435 195q129 0 205 -43l-49 -135q-78 37 -168 36q-184 0 -302 -150.5t-118 -338.5q0 -121 63.5 -191.5t182 -70.5t229.5 55l16 -131q-115 -55 -217 -61l-63 -84q111 -29 110 -134q0 -80 -65.5 -128t-155.5 -48q-86 0 -137 35l39 90q47 -31 106 -30 q37 0 62.5 19t25.5 54q0 68 -135 80l105 146q-170 10 -256 117t-86 263z" />
<glyph unicode="&#xe8;" horiz-adv-x="927" d="M68 377q0 152 66.5 297t193.5 242.5t280 97.5q137 0 214 -72t77 -182q0 -334 -659 -324q-6 -31 -1 -90t21 -98q59 -133 221 -133q135 0 267 69l24 -127q-137 -80 -328 -80q-186 0 -281 112t-95 288zM260 567q225 -2 350 39t125 148v2q0 59 -41 92t-110 33 q-115 0 -203 -93.5t-121 -220.5zM389 1405h193l135 -293h-123z" />
<glyph unicode="&#xe9;" horiz-adv-x="927" d="M68 377q0 152 66.5 297t193.5 242.5t280 97.5q137 0 214 -72t77 -182q0 -334 -659 -324q-6 -31 -1 -90t21 -98q59 -133 221 -133q135 0 267 69l24 -127q-137 -80 -328 -80q-186 0 -281 112t-95 288zM260 567q225 -2 350 39t125 148v2q0 59 -41 92t-110 33 q-115 0 -203 -93.5t-121 -220.5zM516 1112l203 293h203l-273 -293h-133z" />
<glyph unicode="&#xea;" horiz-adv-x="927" d="M68 377q0 152 66.5 297t193.5 242.5t280 97.5q137 0 214 -72t77 -182q0 -334 -659 -324q-6 -31 -1 -90t21 -98q59 -133 221 -133q135 0 267 69l24 -127q-137 -80 -328 -80q-186 0 -281 112t-95 288zM260 567q225 -2 350 39t125 148v2q0 59 -41 92t-110 33 q-115 0 -203 -93.5t-121 -220.5zM369 1112l237 293h121l141 -293h-127l-88 188h-4l-143 -188h-137z" />
<glyph unicode="&#xeb;" horiz-adv-x="927" d="M68 377q0 152 66.5 297t193.5 242.5t280 97.5q137 0 214 -72t77 -182q0 -334 -659 -324q-6 -31 -1 -90t21 -98q59 -133 221 -133q135 0 267 69l24 -127q-137 -80 -328 -80q-186 0 -281 112t-95 288zM260 567q225 -2 350 39t125 148v2q0 59 -41 92t-110 33 q-115 0 -203 -93.5t-121 -220.5zM356 1268q0 45 31 76.5t76 31.5q43 0 69.5 -28.5t26.5 -71.5q0 -45 -29.5 -77t-74.5 -32h-2q-41 0 -69 29t-28 72zM731 1268q0 45 31 76.5t76 31.5q43 0 69.5 -28.5t26.5 -71.5q0 -45 -30 -77t-75 -32h-2q-41 0 -68.5 29t-27.5 72z" />
<glyph unicode="&#xec;" horiz-adv-x="468" d="M57 0l191 991h170l-191 -991h-170zM102 1405h193l135 -293h-121z" />
<glyph unicode="&#xed;" horiz-adv-x="468" d="M57 0l191 991h170l-191 -991h-170zM256 1112l201 293h205l-273 -293h-133z" />
<glyph unicode="&#xee;" horiz-adv-x="468" d="M57 0l191 991h170l-191 -991h-170zM94 1112l236 293h123l141 -293h-127l-88 188h-4l-144 -188h-137z" />
<glyph unicode="&#xef;" horiz-adv-x="468" d="M57 0l191 991h170l-191 -991h-170zM86 1268q0 45 30.5 76.5t76.5 31.5q43 0 69.5 -28.5t26.5 -71.5q0 -45 -30 -77t-75 -32h-2q-41 0 -68.5 29t-27.5 72zM461 1268q0 45 30.5 76.5t75.5 31.5q43 0 70 -28.5t27 -71.5q0 -45 -30 -77t-75 -32h-2q-41 0 -68.5 29t-27.5 72z " />
<glyph unicode="&#xf0;" horiz-adv-x="1056" d="M68 377q0 248 152.5 430t369.5 184q145 0 215 -98l6 4q-53 160 -174 281l-301 -140l-33 86l260 121q-68 68 -180 127l80 101q121 -55 246 -164l268 121l37 -87l-230 -104q211 -231 211 -551q0 -315 -159.5 -513t-380.5 -198q-190 0 -288.5 117t-98.5 283zM244 379 q0 -115 57 -190.5t164 -75.5h2q147 0 246.5 149.5t103.5 347.5q4 98 -33 154q-57 98 -186 98q-152 0 -253 -150.5t-101 -332.5z" />
<glyph unicode="&#xf1;" horiz-adv-x="1093" d="M57 0l133 702q14 70 48 289h151l-24 -194h4q137 217 366 217q104 0 178 -66.5t74 -210.5q0 -63 -18 -159l-111 -578h-170l109 571q14 68 14 127q0 174 -156 174q-98 0 -201.5 -108.5t-136.5 -282.5l-90 -481h-170zM420 1163q10 92 51 148.5t107 56.5q45 0 124 -45 q53 -35 82 -35q25 0 39.5 18.5t22.5 67.5h94q-25 -197 -156 -196q-63 0 -122 41q-53 37 -84 36q-45 0 -62 -92h-96z" />
<glyph unicode="&#xf2;" horiz-adv-x="1069" d="M72 385q0 252 156.5 440.5t392.5 188.5q188 0 287.5 -121t99.5 -293q0 -242 -155 -432.5t-392 -190.5h-2q-180 0 -283.5 117t-103.5 291zM248 391q0 -123 62.5 -200.5t168.5 -77.5h2q145 0 249 153.5t104 335.5q0 106 -55.5 191.5t-176.5 85.5q-152 0 -254 -153 t-100 -335zM401 1405h193l135 -293h-121z" />
<glyph unicode="&#xf3;" horiz-adv-x="1069" d="M72 385q0 252 156.5 440.5t392.5 188.5q188 0 287.5 -121t99.5 -293q0 -242 -155 -432.5t-392 -190.5h-2q-180 0 -283.5 117t-103.5 291zM248 391q0 -123 62.5 -200.5t168.5 -77.5h2q145 0 249 153.5t104 335.5q0 106 -55.5 191.5t-176.5 85.5q-152 0 -254 -153 t-100 -335zM549 1112l201 293h204l-272 -293h-133z" />
<glyph unicode="&#xf4;" horiz-adv-x="1069" d="M72 385q0 252 156.5 440.5t392.5 188.5q188 0 287.5 -121t99.5 -293q0 -242 -155 -432.5t-392 -190.5h-2q-180 0 -283.5 117t-103.5 291zM248 391q0 -123 62.5 -200.5t168.5 -77.5h2q145 0 249 153.5t104 335.5q0 106 -55.5 191.5t-176.5 85.5q-152 0 -254 -153 t-100 -335zM403 1112l238 293h123l139 -293h-127l-88 188h-4l-143 -188h-138z" />
<glyph unicode="&#xf5;" horiz-adv-x="1069" d="M72 385q0 252 156.5 440.5t392.5 188.5q188 0 287.5 -121t99.5 -293q0 -242 -155 -432.5t-392 -190.5h-2q-180 0 -283.5 117t-103.5 291zM248 391q0 -123 62.5 -200.5t168.5 -77.5h2q145 0 249 153.5t104 335.5q0 106 -55.5 191.5t-176.5 85.5q-152 0 -254 -153 t-100 -335zM389 1163q10 92 52 148.5t106 56.5q47 0 125 -45q57 -35 82 -35q27 0 40 17.5t21 68.5h96q-25 -197 -155 -196q-63 0 -123 41q-57 37 -86 36q-43 0 -60 -92h-98z" />
<glyph unicode="&#xf6;" horiz-adv-x="1069" d="M72 385q0 252 156.5 440.5t392.5 188.5q188 0 287.5 -121t99.5 -293q0 -242 -155 -432.5t-392 -190.5h-2q-180 0 -283.5 117t-103.5 291zM248 391q0 -123 62.5 -200.5t168.5 -77.5h2q145 0 249 153.5t104 335.5q0 106 -55.5 191.5t-176.5 85.5q-152 0 -254 -153 t-100 -335zM393 1268q0 45 31 76.5t76 31.5q43 0 69.5 -28.5t26.5 -71.5q0 -45 -30.5 -77t-76.5 -32h-2q-41 0 -67.5 29t-26.5 72zM768 1268q0 45 30.5 76.5t75.5 31.5q43 0 70 -28.5t27 -71.5q0 -45 -30 -77t-77 -32h-2q-41 0 -67.5 29t-26.5 72z" />
<glyph unicode="&#xf7;" horiz-adv-x="1220" d="M115 487v119h1024v-119h-1024zM518 186q0 51 31 83t78 32q49 0 78.5 -31.5t29.5 -83.5q0 -49 -29.5 -80.5t-78.5 -31.5h-2q-47 0 -78 32.5t-29 79.5zM518 905q0 51 31 83t78 32q49 0 78.5 -32t29.5 -83q0 -49 -29.5 -80.5t-78.5 -31.5h-2q-47 0 -78 32.5t-29 79.5z" />
<glyph unicode="&#xf8;" horiz-adv-x="1071" d="M43 -16l117 133q-88 109 -88 280q0 246 156.5 431.5t387.5 185.5q147 0 238 -74l113 125l67 -57l-114 -131q90 -113 90 -271q0 -258 -160 -443.5t-377 -185.5q-156 0 -252 80l-115 -135zM244 418q0 -96 37 -164l4 2l469 567q-53 59 -158 60q-152 0 -251 -149.5 t-101 -315.5zM324 172q59 -63 163 -63q135 0 241 145t108 321q0 88 -33 160h-4z" />
<glyph unicode="&#xf9;" horiz-adv-x="1077" d="M104 264q0 68 19 166l106 561h170l-104 -553q-18 -82 -19 -145q0 -172 160 -172q98 0 195.5 102.5t126.5 259.5l96 508h170l-133 -702q-27 -150 -45 -289h-154l27 186h-4q-66 -98 -159 -153.5t-191 -55.5q-111 0 -186 65.5t-75 221.5zM399 1405h193l135 -293h-121z" />
<glyph unicode="&#xfa;" horiz-adv-x="1077" d="M104 264q0 68 19 166l106 561h170l-104 -553q-18 -82 -19 -145q0 -172 160 -172q98 0 195.5 102.5t126.5 259.5l96 508h170l-133 -702q-27 -150 -45 -289h-154l27 186h-4q-66 -98 -159 -153.5t-191 -55.5q-111 0 -186 65.5t-75 221.5zM537 1112l202 293h205l-272 -293 h-135z" />
<glyph unicode="&#xfb;" horiz-adv-x="1077" d="M104 264q0 68 19 166l106 561h170l-104 -553q-18 -82 -19 -145q0 -172 160 -172q98 0 195.5 102.5t126.5 259.5l96 508h170l-133 -702q-27 -150 -45 -289h-154l27 186h-4q-66 -98 -159 -153.5t-191 -55.5q-111 0 -186 65.5t-75 221.5zM410 1112l235 293h123l141 -293 h-127l-88 188h-4l-143 -188h-137z" />
<glyph unicode="&#xfc;" horiz-adv-x="1077" d="M104 264q0 68 19 166l106 561h170l-104 -553q-18 -82 -19 -145q0 -172 160 -172q98 0 195.5 102.5t126.5 259.5l96 508h170l-133 -702q-27 -150 -45 -289h-154l27 186h-4q-66 -98 -159 -153.5t-191 -55.5q-111 0 -186 65.5t-75 221.5zM389 1268q0 45 31 76.5t76 31.5 q43 0 69.5 -28.5t26.5 -71.5q0 -45 -31 -77t-76 -32h-2q-41 0 -67.5 29t-26.5 72zM764 1268q0 45 30.5 76.5t75.5 31.5q43 0 70 -28.5t27 -71.5q0 -45 -30 -77t-77 -32h-2q-41 0 -67.5 29t-26.5 72z" />
<glyph unicode="&#xfd;" horiz-adv-x="903" d="M-82 -309q117 45 182 96q115 88 191 227q10 18 6 45l-199 932h176l99 -532q29 -150 45 -262h4q59 143 106 241l252 553h181l-371 -753q-180 -362 -342 -521q-137 -139 -289 -172zM455 1112l200 293h205l-272 -293h-133z" />
<glyph unicode="&#xfe;" horiz-adv-x="1077" d="M-31 -406l336 1776h170l-108 -557h4q133 201 340 201q150 0 228.5 -103.5t76.5 -257.5q0 -270 -171 -473t-409 -203q-133 0 -213 46h-6l-80 -429h-168zM246 164q66 -53 190 -53q162 0 283 164.5t121 363.5q0 94 -45 163.5t-142 69.5q-109 0 -213 -113.5t-143 -316.5z" />
<glyph unicode="&#xff;" horiz-adv-x="903" d="M-82 -309q117 45 182 96q115 88 191 227q10 18 6 45l-199 932h176l99 -532q29 -150 45 -262h4q59 143 106 241l252 553h181l-371 -753q-180 -362 -342 -521q-137 -139 -289 -172zM291 1268q0 45 30.5 76.5t75.5 31.5q43 0 70 -28.5t27 -71.5q0 -45 -30 -77t-77 -32h-2 q-41 0 -67.5 29t-26.5 72zM666 1268q0 45 30.5 76.5t75.5 31.5q43 0 69.5 -28.5t26.5 -71.5q0 -45 -29.5 -77t-76.5 -32h-2q-41 0 -67.5 29t-26.5 72z" />
<glyph unicode="&#x152;" horiz-adv-x="1775" d="M94 565q0 162 54.5 308.5t156 264t264 187.5t361.5 70q84 0 157 -6q115 -8 140 -9h614l-29 -145h-550l-82 -444h518l-29 -144h-518l-94 -502h579l-26 -145h-664q-29 0 -127 -8q-61 -6 -145 -6q-283 0 -431.5 164.5t-148.5 414.5zM274 580q0 -201 109 -326t338 -125 q92 0 166 16l205 1090q-66 16 -174 16q-297 0 -470.5 -197.5t-173.5 -473.5z" />
<glyph unicode="&#x153;" horiz-adv-x="1638" d="M70 387q0 254 152.5 440.5t379.5 186.5q127 0 211 -65.5t115 -176.5h2q68 115 176 178.5t223 63.5q143 0 213 -74t70 -170q0 -68 -25.5 -121t-74 -88t-105.5 -57.5t-137 -33.5t-150.5 -16t-161.5 -5q-23 -104 19 -201q61 -131 225 -131q135 0 258 67l25 -125 q-133 -82 -320 -82q-121 0 -208 59.5t-121 174.5h-5q-66 -115 -169 -174.5t-220 -59.5q-168 0 -270 117t-102 293zM246 395q0 -125 62.5 -203.5t164.5 -78.5h2q147 0 245.5 160.5t98.5 332.5q0 117 -51 196t-168 79q-156 0 -255 -151t-99 -335zM979 580q102 0 173 5 t144.5 22.5t112.5 55t39 95.5v2q0 55 -40 89t-112 34q-113 0 -197.5 -91t-119.5 -212z" />
<glyph unicode="&#x178;" horiz-adv-x="1058" d="M172 1380h182l133 -446q41 -141 58 -232h4q84 139 147 238l299 440h199l-588 -805l-108 -575h-168l108 573zM420 1575q0 43 31.5 75.5t74.5 32.5t70 -29.5t27 -70.5q0 -45 -31 -76.5t-76 -31.5h-2q-39 0 -66.5 29.5t-27.5 70.5zM799 1575q0 43 31.5 75.5t74.5 32.5 q41 0 67.5 -29.5t26.5 -70.5q0 -45 -29.5 -76.5t-74.5 -31.5h-2q-39 0 -66.5 29.5t-27.5 70.5z" />
<glyph unicode="&#x2c6;" horiz-adv-x="784" d="M264 1112l238 293h121l141 -293h-127l-88 188h-4l-144 -188h-137z" />
<glyph unicode="&#x2dc;" horiz-adv-x="784" d="M283 1163q10 92 52 148.5t105 56.5q47 0 125 -45q57 -35 84 -35q25 0 38 17.5t24 68.5h94q-25 -197 -156 -196q-63 0 -123 41q-53 37 -84 36q-45 0 -61 -92h-98z" />
<glyph unicode="&#x2013;" horiz-adv-x="1024" d="M59 459l23 123h903l-24 -123h-902z" />
<glyph unicode="&#x2014;" horiz-adv-x="2048" d="M59 459l23 123h1927l-24 -123h-1926z" />
<glyph unicode="&#x2018;" horiz-adv-x="397" d="M150 918q55 127 133.5 271t134.5 216l119 12q-127 -238 -201 -479z" />
<glyph unicode="&#x2019;" horiz-adv-x="397" d="M129 918q119 225 201 479l186 20q-55 -127 -135 -270t-135 -215z" />
<glyph unicode="&#x201a;" horiz-adv-x="397" d="M-109 -250q133 250 205 488l193 20q-55 -127 -137 -272.5t-138 -221.5z" />
<glyph unicode="&#x201c;" horiz-adv-x="700" d="M147 918q57 129 137.5 272t133.5 215l117 12q-119 -221 -201 -479zM453 918q57 129 137 272t133 215l117 12q-127 -238 -201 -479z" />
<glyph unicode="&#x201d;" horiz-adv-x="700" d="M129 918q125 246 201 479l184 20q-131 -303 -268 -485zM434 918q125 246 201 479l186 20q-55 -127 -135 -270t-135 -215z" />
<glyph unicode="&#x201e;" horiz-adv-x="700" d="M-115 -250q133 250 205 488l193 20q-55 -127 -137.5 -272.5t-137.5 -221.5zM205 -250q133 260 203 488l192 20q-55 -127 -137 -272.5t-137 -221.5z" />
<glyph unicode="&#x2022;" horiz-adv-x="567" d="M82 545q-2 88 61.5 151.5t151.5 63.5q90 0 153.5 -62.5t63.5 -152.5t-63.5 -152.5t-153.5 -62.5h-2q-88 0 -149.5 62.5t-61.5 152.5z" />
<glyph unicode="&#x2026;" horiz-adv-x="2048" d="M147 98q0 57 37 97.5t92 40.5q51 0 83 -34t32 -89q0 -57 -37 -96.5t-94 -39.5h-2q-49 0 -80 35t-31 86zM829 98q0 57 37 97.5t92 40.5q51 0 83 -34t32 -89.5t-37 -95.5t-92 -40h-2q-49 0 -81 35t-32 86zM1513 98q0 57 37 97.5t92 40.5q51 0 83 -34t32 -89 q0 -57 -37 -96.5t-94 -39.5h-2q-49 0 -80 35t-31 86z" />
<glyph unicode="&#x2039;" horiz-adv-x="501" d="M68 516l301 377h149l-311 -381l209 -373h-137z" />
<glyph unicode="&#x203a;" horiz-adv-x="501" d="M14 139l312 383l-209 371h137l213 -377l-303 -377h-150z" />
<glyph unicode="&#x20ac;" d="M12 514l23 102h121q6 61 24 123h-125l23 103h133q76 219 252 365.5t395 146.5q150 0 260 -62l-57 -129q-94 49 -213 49q-158 0 -282 -109.5t-179 -260.5h541l-23 -103h-553q-18 -51 -24 -123h555l-23 -102h-536q-2 -166 81.5 -280.5t245.5 -114.5q119 0 234 55l24 -127 q-123 -70 -286 -70q-229 0 -354.5 154t-121.5 383h-135z" />
<glyph unicode="&#x2122;" horiz-adv-x="1370" d="M213 1288v92h465v-92h-178v-465h-111v465h-176zM711 823l41 557h168l96 -272q18 -63 35 -141h4q6 29 19 76t18 63l96 274h162l41 -557h-111l-20 328q-2 23 -3.5 76t-1.5 80h-6q-8 -27 -23.5 -86.5t-21.5 -79.5l-102 -310h-113l-100 318q-10 43 -39 158h-6q0 -16 -1 -48 t-2 -58.5t-3 -49.5l-21 -328h-106z" />
<glyph unicode="&#xe000;" horiz-adv-x="990" d="M0 990h990v-990h-990v990z" />
<glyph unicode="&#xfb01;" horiz-adv-x="1021" d="M84 0l162 856h-131l24 135h133l9 49q37 205 160.5 321t314.5 116q68 0 132 -16.5t91 -37.5l-51 -135q-86 45 -197 45q-233 0 -282 -297l-9 -45h531l-189 -991h-170l164 856h-362l-162 -856h-168z" />
<glyph unicode="&#xfb02;" horiz-adv-x="1021" d="M84 0l162 856h-133l26 135h133l7 43q45 233 192 348q123 94 307 95q176 0 273 -64l-269 -1413h-170l250 1313q-45 25 -131 24q-117 0 -186.5 -79.5t-93.5 -213.5l-11 -53h209l-26 -135h-209l-162 -856h-168z" />
<glyph unicode="&#xfb03;" horiz-adv-x="1591" d="M82 0l162 856h-131l24 135h133l9 47q41 201 147 312q102 102 256 102q82 0 154 -43l-62 -129q-49 31 -102 31q-78 0 -129 -51q-66 -66 -97 -230l-8 -39h404l8 49q37 205 161 321t314 116q68 0 132.5 -16.5t90.5 -37.5l-53 -135q-82 45 -195 45q-231 0 -284 -297l-6 -45 h530l-188 -991h-170l161 856h-360l-162 -856h-170l164 856h-401l-164 -856h-168z" />
<glyph unicode="&#xfb04;" horiz-adv-x="1591" d="M82 0l162 856h-131l24 135h133l9 43q35 201 147 314q104 104 256 104q86 0 160 -41l-62 -129q-53 29 -104 29q-76 0 -131 -56q-72 -72 -99 -223l-8 -41h404l6 43q41 229 192 348q123 94 308 95q172 0 272 -64l-268 -1413h-170l250 1313q-45 25 -132 24 q-117 0 -186.5 -79.5t-93.5 -213.5l-10 -53h209l-27 -135h-209l-162 -856h-170l164 856h-401l-164 -856h-168z" />
</font>
</defs>
</svg>
